<?xml version="1.0" encoding="UTF-8"?>
<!DOCTYPE svg PUBLIC "-//W3C//DTD SVG 1.1//EN" "http://www.w3.org/Graphics/SVG/1.1/DTD/svg11.dtd">
<svg xmlns="http://www.w3.org/2000/svg" version="1.1" width="47px" height="47px" style="shape-rendering:geometricPrecision; text-rendering:geometricPrecision; image-rendering:optimizeQuality; fill-rule:evenodd; clip-rule:evenodd" xmlns:xlink="http://www.w3.org/1999/xlink">
<g><path style="opacity:0.993" fill="#495d72" d="M 0.5,-0.5 C 15.5,-0.5 30.5,-0.5 45.5,-0.5C 45.5,0.166667 45.8333,0.5 46.5,0.5C 46.5,10.1667 46.5,19.8333 46.5,29.5C 45.5,29.5 44.5,29.5 43.5,29.5C 43.5,20.8333 43.5,12.1667 43.5,3.5C 36.8333,3.5 30.1667,3.5 23.5,3.5C 16.5,3.5 9.5,3.5 2.5,3.5C 2.5,12.1667 2.5,20.8333 2.5,29.5C 1.5,29.5 0.5,29.5 -0.5,29.5C -0.5,19.8333 -0.5,10.1667 -0.5,0.5C 0.166667,0.5 0.5,0.166667 0.5,-0.5 Z"/></g>
<g><path style="opacity:1" fill="#e4b621" d="M 23.5,3.5 C 23.5,12.1667 23.5,20.8333 23.5,29.5C 16.5,29.5 9.5,29.5 2.5,29.5C 2.5,20.8333 2.5,12.1667 2.5,3.5C 9.5,3.5 16.5,3.5 23.5,3.5 Z"/></g>
<g><path style="opacity:1" fill="#393e4e" d="M 23.5,3.5 C 30.1667,3.5 36.8333,3.5 43.5,3.5C 43.5,12.1667 43.5,20.8333 43.5,29.5C 36.8333,29.5 30.1667,29.5 23.5,29.5C 23.5,20.8333 23.5,12.1667 23.5,3.5 Z"/></g>
<g><path style="opacity:1" fill="#ba3734" d="M 25.5,5.5 C 29.0479,5.09491 32.3812,5.59491 35.5,7C 33.8333,7.16667 32.1667,7.33333 30.5,7.5C 28.3603,7.44392 26.6936,6.77725 25.5,5.5 Z"/></g>
<g><path style="opacity:1" fill="#fae8b4" d="M 12.5,6.5 C 13.7251,7.1522 14.3917,8.31887 14.5,10C 14.1667,11.1667 13.8333,12.3333 13.5,13.5C 12.5258,11.2573 12.1924,8.92397 12.5,6.5 Z"/></g>
<g><path style="opacity:1" fill="#52366e" d="M 31.5,9.5 C 34.5719,9.18259 37.5719,9.51592 40.5,10.5C 39,10.8333 37.5,11.1667 36,11.5C 34.0145,11.4313 32.5145,10.7647 31.5,9.5 Z"/></g>
<g><path style="opacity:1" fill="#278774" d="M 25.5,12.5 C 28.8984,12.1796 32.2317,12.513 35.5,13.5C 33.8333,13.8333 32.1667,14.1667 30.5,14.5C 28.3603,14.4439 26.6936,13.7773 25.5,12.5 Z"/></g>
<g><path style="opacity:1" fill="#bc575c" d="M 37.5,12.5 C 38.675,12.281 39.675,12.6143 40.5,13.5C 38.9483,14.7979 37.9483,14.4646 37.5,12.5 Z"/></g>
<g><path style="opacity:1" fill="#bcbca0" d="M 25.5,15.5 C 26.9778,15.238 28.3112,15.5713 29.5,16.5C 28.8333,16.8333 28.1667,17.1667 27.5,17.5C 26.2867,17.2528 25.62,16.5862 25.5,15.5 Z"/></g>
<g><path style="opacity:1" fill="#9f5246" d="M 31.5,15.5 C 34.5719,15.1826 37.5719,15.5159 40.5,16.5C 39,16.8333 37.5,17.1667 36,17.5C 34.0145,17.4313 32.5145,16.7647 31.5,15.5 Z"/></g>
<g><path style="opacity:1" fill="#fbebbd" d="M 12.5,15.5 C 14.337,15.6395 14.6704,16.3061 13.5,17.5C 12.7025,17.0431 12.3691,16.3764 12.5,15.5 Z"/></g>
<g><path style="opacity:1" fill="#66357e" d="M 25.5,18.5 C 29.0479,18.0949 32.3812,18.5949 35.5,20C 33.8333,20.1667 32.1667,20.3333 30.5,20.5C 28.3603,20.4439 26.6936,19.7773 25.5,18.5 Z"/></g>
<g><path style="opacity:1" fill="#c19e26" d="M 37.5,18.5 C 38.675,18.281 39.675,18.6143 40.5,19.5C 39.277,20.6139 37.9437,20.7805 36.5,20C 37.056,19.6174 37.3893,19.1174 37.5,18.5 Z"/></g>
<g><path style="opacity:1" fill="#fefaf0" d="M 6.5,21.5 C 7.23891,21.369 7.90558,21.5357 8.5,22C 7.78769,23.425 7.62103,24.925 8,26.5C 5.67598,25.2247 5.17598,23.558 6.5,21.5 Z"/></g>
<g><path style="opacity:1" fill="#fdf6e0" d="M 13.5,20.5 C 14.6289,22.6661 14.1289,24.6661 12,26.5C 11.5906,24.3049 12.0906,22.3049 13.5,20.5 Z"/></g>
<g><path style="opacity:1" fill="#fdf5de" d="M 16.5,20.5 C 21.7998,22.6719 21.7998,24.5053 16.5,26C 17.1667,25.3333 17.8333,24.6667 18.5,24C 17.1772,23.1841 16.5106,22.0174 16.5,20.5 Z"/></g>
<g><path style="opacity:1" fill="#9a3739" d="M 25.5,25.5 C 26.9778,25.238 28.3112,25.5713 29.5,26.5C 28.8333,26.8333 28.1667,27.1667 27.5,27.5C 26.2867,27.2528 25.62,26.5862 25.5,25.5 Z"/></g>
<g><path style="opacity:1" fill="#278874" d="M 31.5,25.5 C 34.5719,25.1826 37.5719,25.5159 40.5,26.5C 39,26.8333 37.5,27.1667 36,27.5C 34.0145,27.4313 32.5145,26.7647 31.5,25.5 Z"/></g>
<g><path style="opacity:0.935" fill="#e4e9ea" d="M -0.5,29.5 C 0.5,29.5 1.5,29.5 2.5,29.5C 9.5,29.5 16.5,29.5 23.5,29.5C 30.1667,29.5 36.8333,29.5 43.5,29.5C 44.5,29.5 45.5,29.5 46.5,29.5C 46.5,31.5 46.5,33.5 46.5,35.5C 40.2564,36.4578 33.923,36.7912 27.5,36.5C 24.5,36.5 21.5,36.5 18.5,36.5C 12.077,36.7912 5.74365,36.4578 -0.5,35.5C -0.5,33.5 -0.5,31.5 -0.5,29.5 Z"/></g>
<g><path style="opacity:0.974" fill="#afb6bb" d="M 18.5,36.5 C 21.5,36.5 24.5,36.5 27.5,36.5C 27.6696,39.204 29.0029,40.8707 31.5,41.5C 25.8333,42.8333 20.1667,42.8333 14.5,41.5C 16.9971,40.8707 18.3304,39.204 18.5,36.5 Z"/></g>
<g><path style="opacity:0.801" fill="#e7ecec" d="M 14.5,41.5 C 20.1667,42.8333 25.8333,42.8333 31.5,41.5C 35.2838,41.5253 36.2838,43.1919 34.5,46.5C 26.8333,46.5 19.1667,46.5 11.5,46.5C 9.71615,43.1919 10.7162,41.5253 14.5,41.5 Z"/></g>
</svg>
